<svg width="24" height="20" viewBox="0 0 24 20" fill="none" xmlns="http://www.w3.org/2000/svg">
<path d="M21.2547 11.7703L23.1013 3.64527C23.2346 3.05863 22.7887 2.5 22.1871 2.5H6.84406L6.48602 0.749609C6.3968 0.31332 6.01289 0 5.56754 0H1.5625C1.04473 0 0.625 0.419727 0.625 0.9375V1.5625C0.625 2.08027 1.04473 2.5 1.5625 2.5H4.2923L7.03637 15.9154C6.37988 16.293 5.9375 17.0009 5.9375 17.8125C5.9375 19.0206 6.91688 20 8.125 20C9.33313 20 10.3125 19.0206 10.3125 17.8125C10.3125 17.2002 10.0607 16.6471 9.65531 16.25H17.8447C17.4393 16.6471 17.1875 17.2002 17.1875 17.8125C17.1875 19.0206 18.1669 20 19.375 20C20.5831 20 21.5625 19.0206 21.5625 17.8125C21.5625 16.9464 21.0591 16.198 20.3289 15.8436L20.5445 14.8953C20.6778 14.3086 20.2319 13.75 19.6303 13.75H9.1452L8.88953 12.5H20.3405C20.7782 12.5 21.1577 12.1971 21.2547 11.7703Z" fill="white"/>
</svg>
