<svg width="21" height="21" viewBox="0 0 21 21" fill="none" xmlns="http://www.w3.org/2000/svg">
<path d="M20.7123 17.5221L16.6966 13.6279C16.5154 13.4521 16.2697 13.3545 16.0119 13.3545H15.3554C16.4671 11.9757 17.1276 10.2415 17.1276 8.35498C17.1276 3.86714 13.3778 0.230774 8.74984 0.230774C4.12193 0.230774 0.37207 3.86714 0.37207 8.35498C0.37207 12.8428 4.12193 16.4792 8.74984 16.4792C10.6953 16.4792 12.4836 15.8386 13.9054 14.7606V15.3973C13.9054 15.6472 14.0061 15.8855 14.1873 16.0613L18.203 19.9554C18.5816 20.3226 19.1939 20.3226 19.5684 19.9554L20.7083 18.85C21.0869 18.4829 21.0869 17.8892 20.7123 17.5221ZM8.74984 13.3545C5.9022 13.3545 3.59429 11.1203 3.59429 8.35498C3.59429 5.59353 5.89818 3.35547 8.74984 3.35547C11.5975 3.35547 13.9054 5.58963 13.9054 8.35498C13.9054 11.1164 11.6015 13.3545 8.74984 13.3545Z" fill="black"/>
</svg>
