<svg width="90" height="32" viewBox="0 0 90 32" fill="none" xmlns="http://www.w3.org/2000/svg">
<mask id="mask0_76_56" style="mask-type:luminance" maskUnits="userSpaceOnUse" x="0" y="0" width="90" height="32">
<path d="M90 0H0V32H90V0Z" fill="white"/>
</mask>
<g mask="url(#mask0_76_56)">
<mask id="mask1_76_56" style="mask-type:luminance" maskUnits="userSpaceOnUse" x="0" y="0" width="90" height="32">
<path d="M90 0H0V32H90V0Z" fill="white"/>
</mask>
<g mask="url(#mask1_76_56)">
<path d="M30.4009 26.1128V27.8195H30.4169C30.528 27.6363 30.7024 27.5029 30.9406 27.42C31.1788 27.3367 31.4406 27.2953 31.7261 27.2953C32.0436 27.2953 32.3198 27.3421 32.5554 27.4362C32.7911 27.5302 32.9866 27.6566 33.143 27.8165C33.2993 27.9765 33.4167 28.1605 33.4959 28.3697C33.5751 28.5786 33.6153 28.8003 33.6153 29.0344C33.6153 29.2685 33.5766 29.4906 33.5 29.6994C33.4233 29.9082 33.3071 30.0905 33.1507 30.2459C32.9948 30.4017 32.7988 30.5239 32.5632 30.6135C32.3276 30.7029 32.0538 30.7477 31.7416 30.7477C31.6408 30.7477 31.5286 30.739 31.4041 30.722C31.2796 30.705 31.1566 30.6773 31.0352 30.6387C30.9138 30.6006 30.7986 30.5484 30.69 30.4821C30.5815 30.4158 30.4904 30.3342 30.4163 30.236H30.4004V30.6773H29.726V26.1128H30.4009ZM32.8255 28.545C32.7752 28.3979 32.6985 28.267 32.5956 28.1518C32.4922 28.0366 32.3599 27.945 32.1984 27.8771C32.0369 27.8091 31.8481 27.7747 31.631 27.7747C31.4036 27.7747 31.2102 27.8108 31.0517 27.8833C30.8932 27.9558 30.763 28.0507 30.6627 28.1675C30.5619 28.2848 30.4894 28.4178 30.4446 28.567C30.3994 28.7161 30.3772 28.8674 30.3772 29.0207C30.3772 29.1827 30.4009 29.3393 30.4487 29.4906C30.4961 29.6418 30.5717 29.7748 30.6746 29.89C30.778 30.0051 30.9112 30.098 31.0753 30.168C31.2395 30.2381 31.438 30.2733 31.6706 30.2733C31.9031 30.2733 32.0976 30.2372 32.254 30.1647C32.4099 30.0922 32.5359 29.9965 32.6305 29.8771C32.7257 29.7578 32.7947 29.6215 32.8369 29.4682C32.8796 29.3144 32.9006 29.157 32.9006 28.995C32.9006 28.8412 32.8755 28.6913 32.8251 28.5442L32.8255 28.545Z" fill="white"/>
<path d="M36.0202 31.1183C35.941 31.2803 35.8628 31.4166 35.7861 31.5273C35.7095 31.6379 35.6246 31.7286 35.532 31.7991C35.4394 31.8695 35.3365 31.9205 35.2228 31.9528C35.1091 31.9847 34.9779 32.0009 34.8298 32.0009C34.7506 32.0009 34.6708 31.9967 34.5916 31.988C34.5123 31.9793 34.4357 31.9644 34.3616 31.9433V31.4448C34.4198 31.4659 34.4872 31.4842 34.5638 31.4991C34.6405 31.514 34.7053 31.5214 34.7583 31.5214C34.8956 31.5214 35.0109 31.495 35.1034 31.4415C35.1961 31.388 35.2661 31.3126 35.3139 31.2144L35.5917 30.6584L33.9645 27.3725H34.7264L35.9245 30.0766H35.9405L37.0914 27.3725H37.8054L36.0202 31.1183Z" fill="white"/>
<path d="M45.4115 28.7516C45.5983 28.9483 45.6918 29.1908 45.6918 29.4783C45.6918 29.8856 45.4953 30.1985 45.1023 30.4176C44.7093 30.6369 44.1366 30.7462 43.384 30.7462H40.4001V26.0993H43.2189C43.9221 26.0993 44.4623 26.2078 44.8384 26.4245C45.2144 26.6413 45.4027 26.9358 45.4027 27.3075C45.4027 27.5334 45.3353 27.7347 45.2006 27.9117C45.0658 28.0886 44.8775 28.2282 44.6362 28.3297C44.9659 28.4139 45.2248 28.5547 45.4115 28.7516ZM41.7269 26.9093V28.0049H43.0537C43.3835 28.0049 43.6335 27.9585 43.8038 27.8657C43.9741 27.7729 44.0595 27.6357 44.0595 27.4542C44.0595 27.2727 43.9741 27.1368 43.8038 27.0461C43.6335 26.9553 43.3835 26.9102 43.0537 26.9102H41.7269V26.9093ZM44.0806 29.797C44.2591 29.7042 44.3486 29.5603 44.3486 29.3656C44.3486 28.9806 43.9942 28.788 43.2852 28.788H41.7274V29.9366H43.2852C43.6366 29.9366 43.9021 29.8898 44.0806 29.797Z" fill="white"/>
<path d="M50.5053 29.7505H47.8264L47.3156 30.7462H45.9471L48.5189 26.0993H49.8375L52.4175 30.7462H51.0161L50.5053 29.7505ZM50.085 28.9338L49.1702 27.1546L48.2555 28.9338H50.085Z" fill="white"/>
<path d="M53.8557 30.5168C53.3803 30.3108 53.0069 30.0253 52.7347 29.6603C52.4626 29.2952 52.3268 28.8826 52.3268 28.4222C52.3268 27.9619 52.4626 27.5492 52.7347 27.1841C53.0069 26.8191 53.3803 26.5336 53.8557 26.3277C54.3311 26.1217 54.8656 26.019 55.4588 26.019C55.9588 26.019 56.4105 26.0899 56.8149 26.2315C57.2188 26.3733 57.5578 26.5767 57.833 26.8423L56.9759 27.4796C56.5854 27.1166 56.1024 26.9352 55.5251 26.9352C55.1681 26.9352 54.8491 26.9981 54.5688 27.1245C54.2884 27.2504 54.0702 27.4266 53.9133 27.6524C53.7569 27.8782 53.6783 28.1347 53.6783 28.4227C53.6783 28.7107 53.7565 28.9671 53.9133 29.1929C54.0698 29.4187 54.2884 29.5944 54.5688 29.7208C54.8491 29.8468 55.1676 29.9101 55.5251 29.9101C56.1024 29.9101 56.5854 29.7266 56.9759 29.3591L57.833 29.9964C57.5583 30.2665 57.2177 30.472 56.8108 30.6138C56.4039 30.7555 55.9506 30.8263 55.4506 30.8263C54.8625 30.8263 54.3311 30.7236 53.8557 30.5176V30.5168Z" fill="white"/>
<path d="M59.3411 30.7442C59.8495 30.7442 60.2615 30.4123 60.2615 30.0029C60.2615 29.5935 59.8495 29.2616 59.3411 29.2616C58.8328 29.2616 58.4208 29.5935 58.4208 30.0029C58.4208 30.4123 58.8328 30.7442 59.3411 30.7442Z" fill="#E60019"/>
<path d="M53.3291 18.913L52.8223 19.941H56.6046L56.1272 18.913H53.3291Z" fill="white"/>
<path d="M62.0213 16.3836L61.3802 19.9408H63.8023L62.0418 16.3836H62.0213Z" fill="white"/>
<path d="M54.7492 15.6568H54.7281L53.889 17.6602H55.578L54.7492 15.6568Z" fill="white"/>
<path d="M22.6384 18.913L22.1317 19.941H25.914L25.4366 18.913H22.6384Z" fill="white"/>
<path d="M16.7296 17.5689C16.529 17.4575 16.2012 17.402 15.7449 17.402H15.1543V18.7544H15.4136C16.0562 18.7544 16.4878 18.6989 16.709 18.5874C16.923 18.4706 17.03 18.3036 17.03 18.0865C17.03 17.8528 16.9297 17.6804 16.7296 17.5689Z" fill="white"/>
<path d="M16.227 16.0368C16.3962 15.9395 16.4806 15.7853 16.4806 15.5736C16.4806 15.3618 16.3957 15.2077 16.227 15.1103C16.0577 15.013 15.7655 14.9645 15.3514 14.9645H15.1543V16.1831H15.3719C15.7727 16.1831 16.0577 16.1346 16.227 16.0368Z" fill="white"/>
<path d="M24.0583 15.6568H24.0377L23.1986 17.6602H24.8876L24.0583 15.6568Z" fill="white"/>
<path d="M74.2217 16.5337C74.3941 16.4836 74.5258 16.4032 74.6153 16.2917C74.7053 16.1803 74.7501 16.0274 74.7501 15.8326C74.7501 15.6155 74.7053 15.4543 74.6153 15.3482C74.5186 15.2372 74.391 15.1564 74.232 15.1063C74.0664 15.0561 73.7309 15.0313 73.2268 15.0313H72.9469V16.6004H73.3822C73.7762 16.6004 74.0561 16.5784 74.2217 16.5337Z" fill="white"/>
<path d="M66.5192 16.3836L64.6769 19.9408H67.0995L66.5397 16.3836H66.5192Z" fill="white"/>
<path d="M75.1656 5.94886L73.3304 7.57063L65.6763 0L61.5607 6.80364L57.9703 1.98599L55.2164 4.10706L53.8644 5.89913L45.0687 1.65616L42.234 6.56L38.7686 2.99866L34.0417 6.20865L31.8008 2.99866L27.4911 4.10706L25.2882 7.02701L24.0669 5.94886L15.4863 8.51369L14.8349 10.5544L12.7874 9.40041L3.01267 13.1772L0 19.9407H13.1233V13.7121H16.0562C17.576 13.7121 18.3394 14.2574 18.3467 15.348C18.3467 15.9712 18.0596 16.3996 17.4865 16.6333V16.6499C18.5504 16.7721 19.0823 17.3067 19.0823 18.2526C19.0823 18.3044 19.0782 18.3538 19.0736 18.4035L17.4726 19.9403H19.9754L20.2162 19.4356L22.9495 13.7117H25.1673L27.6049 18.9243L26.5466 19.9403H29.9261C29.6858 19.8686 29.4502 19.7824 29.2197 19.6767C29.0731 19.6096 28.9275 19.5379 28.7845 19.4568L29.9544 18.3339C30.4621 18.6355 30.9576 18.7884 31.4412 18.7884C31.7375 18.7884 31.9772 18.7316 32.1604 18.6177C32.343 18.5037 32.4346 18.3496 32.4346 18.1552C32.4346 17.8718 32.1516 17.6638 31.5863 17.53C30.6618 17.3191 30.0861 17.1496 29.8587 17.0216C29.6035 16.8828 29.4122 16.705 29.2845 16.4883C29.157 16.2716 29.0932 15.9969 29.0932 15.6633C29.0932 15.0356 29.3412 14.5276 29.8381 14.1385C30.3418 13.7498 30.9864 13.5551 31.773 13.5551C32.6075 13.5551 33.4249 13.7275 34.2249 14.0718L34.2192 14.0805L33.0967 15.1583C32.7669 15.0008 32.4258 14.922 32.0729 14.922C31.8384 14.922 31.6352 14.9722 31.4628 15.0721C31.2904 15.1719 31.204 15.2971 31.204 15.447C31.204 15.597 31.2868 15.7122 31.4525 15.8096C31.6182 15.9069 31.8903 15.9998 32.27 16.0889C32.9115 16.2223 33.3801 16.3752 33.677 16.5471C33.9805 16.7137 34.2012 16.9026 34.3391 17.1136C34.477 17.3249 34.546 17.5831 34.546 17.8888C34.546 18.0761 34.528 18.2502 34.4955 18.4138L32.9053 19.9403H36.8132V13.6856H41.2591V15.0712H38.8442V16.1229H41.1346V17.5085H38.8442V18.5936H41.2591V18.8961L40.171 19.9407H46.0857C45.5703 19.7894 45.0892 19.5566 44.6447 19.2367C43.7948 18.6247 43.3705 17.8263 43.3705 16.8409C43.3705 16.229 43.5567 15.6696 43.9297 15.1632C44.3027 14.6515 44.8104 14.2508 45.4535 13.9612C46.1027 13.6666 46.7834 13.5191 47.4949 13.5191C48.068 13.5191 48.6869 13.6247 49.35 13.8365V15.798C49.1499 15.5809 48.8921 15.4114 48.5778 15.2888C48.2634 15.1666 47.9265 15.1052 47.5674 15.1052C46.966 15.1052 46.469 15.2693 46.075 15.5979C45.6809 15.9206 45.4844 16.3379 45.4844 16.8496C45.4844 17.3614 45.6778 17.7567 46.0646 18.0848C46.4582 18.4022 46.9696 18.5609 47.5983 18.5609C47.9301 18.5609 48.2495 18.5025 48.5567 18.3856C48.8639 18.2688 49.1283 18.1047 49.3495 17.8934V18.8953L48.2593 19.9415H50.6665L51.0503 19.1377L53.6406 13.713H55.8584L58.2949 18.9226L57.2336 19.9415H59.3619L60.6748 13.713H62.675L64.2605 17.0767L65.9393 13.713H67.9601L68.9381 18.9218L67.8762 19.9411H70.9171V13.7126H74.0677C74.9587 13.7126 75.6481 13.8908 76.1353 14.2467C76.6225 14.603 76.8658 15.1147 76.8658 15.7827C76.8658 17.2072 75.9604 17.9195 74.1505 17.9195H72.9483V18.9239L71.8884 19.9407H88.4553L90.0008 18.459L75.1656 5.94886Z" fill="white"/>
</g>
</g>
</svg>
