<svg width="21" height="20" viewBox="0 0 21 20" fill="none" xmlns="http://www.w3.org/2000/svg">
<path d="M10.625 11.25C13.7305 11.25 16.25 8.73047 16.25 5.625C16.25 2.51953 13.7305 0 10.625 0C7.51953 0 5 2.51953 5 5.625C5 8.73047 7.51953 11.25 10.625 11.25ZM15.625 12.5H13.4727C12.6055 12.8984 11.6406 13.125 10.625 13.125C9.60938 13.125 8.64844 12.8984 7.77734 12.5H5.625C2.86328 12.5 0.625 14.7383 0.625 17.5V18.125C0.625 19.1602 1.46484 20 2.5 20H18.75C19.7852 20 20.625 19.1602 20.625 18.125V17.5C20.625 14.7383 18.3867 12.5 15.625 12.5Z" fill="white"/>
</svg>
